# xmcd
#
# Track frame offsets: 
#        150
#        17851
#        33831
#        49038
#        68909
#        81898
#        93264
#        111715
#        128456
#        146102
#        164907
#        182606
#        195767
#        210539
#        225836
#        243688
#        259564
#        275130
#
# Disc length: 3886 seconds
#
# Revision: 4
# Processed by: cddbd v1.5.2PL0 Copyright (c) Steve Scherf et al.
# Submitted via: ExactAudioCopy v0.99pb5
#
DISCID=fb0f2c12
DTITLE=various  HT 19 - Hott Country 019
DYEAR=1900
DGENRE=Country
TTITLE0=Alan jackson - There Goes
TTITLE1=Lee Ann Womack - The Fool
TTITLE2=Vince Gill - You And You Alone
TTITLE3=Billy Ray Cyrus - It's All the Same To Me
TTITLE4=David lee Murphy - All Lit Up On Love
TTITLE5=Kevin Sharp - If You Love Somebody
TTITLE6=Travis Tritt and Lari White - Helping Me get Over You
TTITLE7=Blackhawk - Hole In My Heart
TTITLE8=Joe Diffie - Somethin' like This
TTITLE9=Deana Carter - How Do I Get There?
TTITLE10=Tanya Tucker - Ridin' Out The Heartache
TTITLE11=Dwight Yoakam - Claudette
TTITLE12=Mary Chapin Carpenter - Keeping The Faith
TTITLE13=Jason McCoy - Born Again In Dixieland
TTITLE14=John Fogerty - Southern Streamline
TTITLE15=Mila Mason - That's The Kinda Love
TTITLE16=Jeff Wood - You Call That A Mountain
TTITLE17=Daryl Singletary - Even The Wind
EXTD=
EXTT0=
EXTT1=
EXTT2=
EXTT3=
EXTT4=
EXTT5=
EXTT6=
EXTT7=
EXTT8=
EXTT9=
EXTT10=
EXTT11=
EXTT12=
EXTT13=
EXTT14=
EXTT15=
EXTT16=
EXTT17=
PLAYORDER=
